<?xml version="1.0" encoding="UTF-8"?>
<svg id="Layer_2" data-name="Layer 2" xmlns="http://www.w3.org/2000/svg" viewBox="0 0 482.91 151.57">
  <defs>
    <style>
      .cls-1 {
        fill: #292d3e;
      }

      .cls-2 {
        fill: #f5c177;
      }
    </style>
  </defs>
  <g id="Layer_1-2" data-name="Layer 1">
    <g>
      <g id="path2554">
        <path class="cls-2" d="M89.56,1.61l-9.55,12.24c9.2-7.59,20.34-11.4,32.24-13.85-9.97,4.67-19.37,9.6-26.39,15.76,10.05-6.01,20.47-7.05,31.26-6.22-17.38,5.51-32.62,13.16-45.36,21.76l-4.88-5.25c5.27-9.16,13.18-17.33,22.69-24.44h0Z"/>
      </g>
      <g>
        <path class="cls-1" d="M220.73,61.58c-3.42-3.29-9.22-5.66-15.14-5.66-20.02,0-23.31,24.49-23.31,46.48l-1.32,1.71c0-14.22,1.32-33.45,8.96-43.85-3.16-2.5-8.03-4.35-13.56-4.35-14.6,0-20.88,13.38-22.05,30.89-1.99,4.46-4.24,8.97-7.19,12.69,4.35-11.06,6.06-23.97,6.06-29.23,0-9.22-3.95-14.35-12.91-14.35-22.39,0-28.44,32.53-30.29,53.46h-.26c.92-20.41,4.87-37.27,12.9-47.14-3.42-3.56-8.69-6.32-15.67-6.32-8.59,0-14.68,4.44-18.1,13.86-.12-.28-.22-.56-.34-.83-2.5-5.57-6.27-11.02-10.38-16.45-1.87-2.37-6.71-11.56-.44-18.74l-15.35-16.08-1.74.43c1.28,14.13-4.69,18.69-8.74,19.3-8.22,1.5-19.82,2.88-26.36,5.64-12.76,5.15-19.16,12.61-23.26,24.18-5.57,14.87-.44,31.56,11.65,42.6,5.28,4.74,10.89,7.58,17.2,10.38,10.18,4.52,22.01,6.5,32.41,3.57,9.76-2.72,18.06-9.24,23.1-17.84,2.36,13.49,8.87,20.17,17.98,20.17s12.77-6.19,14.09-10.4c-1.05-3.56-1.71-7.24-1.71-10.8,0-8.56,1.58-21.99,9.48-35.69l.4.13c-4.48,9.48-8.16,23.57-8.16,35.03s5,21.73,15.8,21.73c9.97,0,16.69-8.99,20.83-18.7,2.31,11.79,7.98,18.7,17.62,18.7,7.64,0,15.93-9.48,20.67-23.57h.26c-.92,4.35-2.63,11.59-7.77,17.91.92,5.4,2.63,11.85,4.48,18.7h-.26c-2.11-4.48-4.35-10.14-5.93-16.59-2.9,3.16-7.37,5.66-12.64,5.66-.66,0-1.18,0-1.84-.13-3.42,3.03-5,6.45-5,10.01,0,8.95,10.54,12.64,25.94,12.64,21.86,0,26.21-7.11,26.21-18.57,0-6.72-3.56-22.12-3.56-38.45,0-11.06,1.58-22.65,7.24-32.13ZM12.59,104.27c-8.91-10.48-11.09-25.69-7.4-35.56,7.72-20.09,19.66-21.49,31.6-24.78,6.66-1.85,14.43-.8,21.49-6.26,1.42-1.26,3.38-4.51,4.11-8.48.14-1.48.33-6.55.06-7.87l8.68,9.51s0,.01,0,.02v-.02c-2.59,5.04-4.37,9.05-5.23,13.31-.84,4.6,1.94,13.05,1.18,20.95-1.55,15.1-10.34,31.81-19.27,43.81-1.43,1.86-3.89,3.77-6.75,5.3,1.13-.91,2.22-1.94,3.2-3.1,7.93-9.36,11.3-13.87,15.22-26.55.37-1.21,1.57-5.48,1.56-10.47.14-7.66-1-15.55-.85-17.03-.11-2.45,2.69-11.86,5.15-17.8-2.08,5.08-5.93,14.53-6.15,18.9-.14,1.48,1.02,8.52.47,16.35-.32,5.35-1.79,9.85-2.08,11.27-1.27,5.96-6.84,14.65-12.59,22.57-1.7,2.35-4.24,4.73-6.97,6.51,1.38-1.06,2.77-2.36,4.07-3.85,3.73-4.53,7.16-10.73,8.87-14.95.94-2.5,2.23-8.11,2.32-13.73.14-3.03-.43-6.37-.61-8.68-.34-2.72,1.45-6.74,2.91-11.58-2.08,5.08-3.8,7.41-4.1,11.57-.24,2.47,1.21,6.55.66,9.73-.65,4.17-1.35,8.84-2.49,11.42-1.27,2.87-3.83,8.26-7.67,13.42-3.06,4.23-6.99,7.39-11.64,8.1,2.46-1.24,4.29-2.65,5.56-4.45,1.58-2.39,2.8-4.77,4.42-7.65,1.43-2.45,2.75-5.82,3.56-9.58,1.05-4.68,1.44-9.83,2.13-13.3-1.38,3.51-2,8.38-3.4,13.08-1.03,3.49-2.64,6.72-4.06,9.53-1.61,3.24-5.28,8.81-8.2,11.13-1.12-1.35-1.37-2.33-1.87-3.92-.45-2.09-.54-4.19-.43-6.37.06-1.69.11-3.73.65-5.72.84-3.06,3.02-7.59,8.36-10.71,4.24-2.58,4.94-2.62,7.64-6.39-2.8,3.22-3.85,3.27-7.98,5.21-4.54,2.11-7.26,7.08-9.11,11.24-.76,1.72-.94,4.05-.98,6.09-.11,2.18-.28,4.51.08,6.39.29,1.54.79,2.89,1.34,3.93-2.87-2.24-5.59-4.98-6.85-7.75-3.19-6.74-4.33-16.17-2.04-22.88,1.92-5.5,10.3-11.22,18.9-12.04,7.26-.9,10.35-3.99,14.44-9.73-4.14,4.69-7.83,8.37-14.76,8.9-10.08.67-17.36,5.86-19.99,12.93-3.31,9-2.48,16.41,2.31,24.2.95,1.58,2.49,3.45,4.18,5.21-7.48-5.85-8.02-7.63-9.34-12.14.06-.14-.4-1.04-.34-1.18-1.9-6.16-3.47-15.79-2.07-23.58.51-2.69,1.08-5.53,2.88-7.65,8.18-9.93,17.04-11.32,26.17-12.94,2.23-.38,4.46-.77,6.55-1.21,5.21-1.29,9.78-8.88,12.61-12.94-4,4.75-8.57,10.79-12.82,11.48-2.15.59-4.6.7-6.63,1.01-9.34,1.69-18.61,3.24-27.12,13.54-2.2,2.63-2.64,5.18-3.2,8.37-1.52,8.08.06,18.05,2.04,24.42,0,0,.46.89.4,1.04.95,2.9,2.61,5.44,4.81,7.87-2-1.67-3.87-3.46-5.54-5.45Z"/>
        <path class="cls-1" d="M445.77,80.02c-1.71,3.95-3.69,7.9-5.93,12.25-.53,2.5-1.32,5-2.5,7.24h-.26c1.19-4.74,1.19-9.22,1.19-13.04,0-14.09-7.9-24.36-25.55-27.79-1.84,3.95-4.74,9.09-7.9,13.17h-.26c3.69-7.11,6.72-13.83,6.72-18.7,0-4.35-3.42-7.37-9.74-7.37-11.46,0-18.57,8.56-18.57,20.41,0,3.03.39,6.45,1.45,9.88,0,3.67-.73,7.23-2.09,10.6-.45.98-.94,2.02-1.44,3.06-1.26,2.35-2.83,4.58-4.69,6.68,3.51-10.28,4.93-21.36,4.93-26.14,0-9.22-3.95-14.35-12.9-14.35-23.31,0-28.71,35.69-30.29,53.46h-.26c0-7.9,1.84-33.71,12.9-47.14,0,0-4.34-6.32-13.56-6.32-22.39,0-28.44,32.53-30.29,53.46h-.26c.92-20.41,4.87-37,12.91-47.14-3.42-3.56-8.69-6.32-15.67-6.32-13.51,0-20.85,10.98-21.31,35.09-1.61,3.02-3.42,5.95-5.55,8.5,0-16.2,2.63-29.5,7.24-37.92-3.42-3.29-9.22-5.66-15.14-5.66-20.02,0-23.31,24.49-23.31,46.48l-1.32,1.71c0-14.22,1.32-33.45,8.96-43.85-3.16-2.5-8.03-4.35-13.56-4.35-16.33,0-22.25,16.72-22.25,37.27s5.79,32.92,18.83,32.92c7.64,0,15.93-9.48,20.67-23.57h.26c-.92,4.35-3.03,11.46-6.06,16.2,2.77,5.66,8.03,7.37,12.51,7.37,9.17,0,15.9-7.86,20.38-16.82,2.8,11.25,8.95,16.82,17.28,16.82,8.95,0,12.51-5.93,13.96-10.14-1.05-3.82-1.58-7.37-1.58-11.06,0-8.56,1.58-21.99,9.48-35.69l.4.13c-4.48,9.48-8.17,23.44-8.17,35.03s5,21.73,17.12,21.73c8.95,0,12.51-5.93,13.96-10.14-.92-2.5-1.58-6.45-1.58-10.8,0-8.43,1.58-22.25,9.48-35.95l.4.13c-4.48,9.48-8.17,23.57-8.17,35.03s5.14,21.73,15.8,21.73c9.44,0,15.98-8,20.16-17.07,4.38-6.99,9.16-14.87,12.23-20.19,0,0,.53-.26,1.45,2.11,2.63-1.45,5.53-2.11,8.43-2.11,6.72,0,13.3,3.56,16.86,9.74l-.4.13c-3.82-5.66-9.09-8.16-15.28-8.16-10.8,0-17.38,8.95-17.38,17.78s6.58,17.78,22.65,17.78c29.23,0,37.92-30.55,37.92-41.22,0-2.63-1.18-4.48-3.29-4.87Z"/>
        <path class="cls-1" d="M468.95,23.13c-8.82,0-14.22,4.21-14.22,14.09,3.42,3.82,4.87,7.11,4.87,9.88,0,5.4-5.14,8.95-9.09,10.14,0,3.69,1.45,6.06,6.06,6.06,12.25,0,26.34-14.48,26.34-29.1,0-7.37-5.66-11.06-13.96-11.06Z"/>
      </g>
      <g>
        <path class="cls-2" d="M322.58,134.57c-1.75,0-2.88,2.04-2.88,3.79,0,.46.96.22,2.23.74,2.95,1.22,5.62,3.36,5.62,5.64,0,.86-.72,1.32-1.92,1.32-2.26,0-6.07-2.28-7.39-5.18.82-4.32,1.1-8.83,1.1-11.4,0-5.52-.86-8.69-2.62-8.69-2.52,0-4.37,2.83-4.37,6.31,0,5.87.93,11.24,2.61,15.41-1.15,1.78-3.3,3.48-6.95,3.48-2.59,0-4.73-.89-6.24-2.21,2.76-.86,5.42-2.98,5.42-5.4s-2.62-4.2-5.5-4.2c-3.46,0-5.88,2.71-5.88,6.6,0,.72.08,1.43.23,2.12-.19.02-.38.04-.59.04-1.58,0-3.41-.48-4.85-1.44-.12-4.18-1.94-6.94-3.7-6.94s-2.86,1.54-2.86,3.41c0,2.71,1.54,4.85,3.7,6.14-.36,1.56-1.32,2.38-2.26,2.38-1.49,0-2.83-1.25-3.84-3.07.07-.5.12-1.01.12-1.54,0-4.39-1.73-7.01-3.53-7.01s-3.07,1.46-3.07,4.68c0,2.11.84,4.25,2.06,6.22-.38.36-.77.58-1.1.58-2.81,0-5.71-5.23-6.02-11.04-.05-.7-.38-1.06-.86-1.06-2.09,0-3.77,1.87-3.77,4.2,0,3.86,3.67,12.65,9.43,12.65,1.75,0,3.36-.96,4.58-2.45,1.37,1.44,3.02,2.45,4.92,2.45,2.81,0,4.99-2.5,5.83-6.02,1.15.34,2.38.5,3.62.5.99,0,2.01-.11,2.99-.34,1.67,3.4,5.24,5.86,9.82,5.86s8.04-2.5,9.59-5.83c2.05,3.63,4.83,5.83,8.12,5.83,4.2,0,6.14-3.12,6.14-6.96,0-5.14-5.11-9.58-7.97-9.58ZM299.27,138.7c0-.84.29-1.39,1.06-1.39,1.08,0,2.38,1.2,2.38,2.45,0,.96-.7,1.9-2.42,2.3-.67-1.06-1.01-2.23-1.01-3.36Z"/>
        <path class="cls-2" d="M448.98,139.95c-.29,0-.38.41-.41.67-.34,2.64-1.37,5.42-4.2,5.42-3.22,0-5.04-3.62-5.21-6.65,1.03-1.37,1.63-2.95,1.63-4.34,0-1.63-.94-2.71-2.06-2.71-1.03,0-1.97,1.56-2.33,3.74-.86.29-1.85.53-2.86.65-.48-1.1-1.58-2.16-3.05-2.16-1.13,0-1.75,1.3-1.75,2.5,0,2.03,1.36,4.46,3.64,5.09-1.08,1.9-3.27,3.84-7.16,3.84-2.59,0-4.73-.89-6.24-2.21,2.76-.86,5.42-2.98,5.42-5.4s-2.62-4.2-5.5-4.2c-3.46,0-5.88,2.71-5.88,6.6,0,.72.08,1.42.23,2.11-.23.02-.47.05-.7.05-1.63,0-3.31-.53-4.73-1.49-.12-4.15-1.97-6.89-3.7-6.89s-2.86,1.54-2.86,3.41c0,2.28,1.27,4.44,3.29,5.86-.26,1.58-.7,2.76-.96,2.9-2.76-.6-7.37-6.99-7.37-11.43,0-.7-.38-1.06-.86-1.06-2.09,0-3.77,1.87-3.77,4.2,0,1,.33,2.32.9,3.74-.53,2.06-1.64,3.84-3.9,3.84-3.22,0-5.04-3.62-5.21-6.65,1.03-1.37,1.63-2.95,1.63-4.34,0-1.63-.94-2.71-2.06-2.71-1.03,0-1.97,1.56-2.33,3.74-.86.29-1.85.53-2.86.65-.48-1.1-1.58-2.16-3.05-2.16-1.13,0-1.75,1.3-1.75,2.5,0,2.03,1.36,4.46,3.64,5.09-1.08,1.9-3.27,3.84-7.16,3.84-2.59,0-4.73-.89-6.24-2.21,2.76-.86,5.42-2.98,5.42-5.4s-2.62-4.2-5.5-4.2c-3.46,0-5.88,2.71-5.88,6.6,0,.62.06,1.22.17,1.82-.67,1.71-1.91,3.31-3.67,3.85.07-.29.1-.6.1-.89,0-2.3-1.58-4.15-3.34-5.52-2.62-2.04-5.06-3.07-5.06-5.47,0-1.03.72-1.78.72-2.21,0-.36-.22-.55-.79-.55-2.88,0-5.62,2.4-5.62,4.85,0,5.74,11.04,6.26,11.62,9.86-1.8-.1-3.53-.5-4.73-1.7-.14-.14-.29-.26-.41-.26-1.18,0-2.5,2.18-2.5,3.62,0,1.87,2.9,3.38,5.69,3.38,3.46,0,7.55-2.05,9.08-5.9,1.75,3.19,5.22,5.44,9.62,5.44,5.75,0,10-4.13,10.38-8.83.77-.08,1.49-.3,2.15-.63.43,4.22,2.5,9.46,7.37,9.46,2.55,0,5.07-2.22,5.8-6.27,1.95,3.27,4.97,6.27,8.28,6.27,2.04,0,4.34-2.62,5.28-6.02,1.1.34,2.33.53,3.62.53,1.08,0,2.12-.12,3.07-.35,1.68,3.39,5.24,5.85,9.82,5.85,5.75,0,10-4.13,10.38-8.83.77-.08,1.49-.3,2.15-.63.43,4.22,2.5,9.46,7.37,9.46,3.02,0,6.02-3.12,6.02-8.74,0-.96-.43-2.42-.84-2.42ZM360.71,138.7c0-.84.29-1.39,1.06-1.39,1.08,0,2.38,1.2,2.38,2.45,0,.96-.7,1.9-2.42,2.3-.67-1.06-1.01-2.23-1.01-3.36ZM416.48,138.7c0-.84.29-1.39,1.06-1.39,1.08,0,2.38,1.2,2.38,2.45,0,.96-.7,1.9-2.42,2.3-.67-1.06-1.01-2.23-1.01-3.36Z"/>
      </g>
    </g>
  </g>
</svg>